HIERARCHY
ROOT SimulationBone
{
	OFFSET 0.000000 0.000000 0.000000
	CHANNELS 6 Xposition Yposition Zposition Zrotation Yrotation Xrotation 
	JOINT Hips
	{
		OFFSET 0.000000 0.000000 0.000000
		CHANNELS 6 Xposition Yposition Zposition Zrotation Yrotation Xrotation 
		JOINT RightUpLeg
		{
			OFFSET 0.103454 1.857828 10.548502
			CHANNELS 3 Zrotation Yrotation Xrotation
			JOINT RightLeg
			{
				OFFSET 43.500000 -0.000023 -0.000008
				CHANNELS 3 Zrotation Yrotation Xrotation
				JOINT RightFoot
				{
					OFFSET 42.372192 0.000008 0.000008
					CHANNELS 3 Zrotation Yrotation Xrotation
					JOINT RightToe
					{
						OFFSET 17.299997 -0.000001 0.000000
						CHANNELS 3 Zrotation Yrotation Xrotation
						End Site
						{
							OFFSET 0.000000 0.000000 0.000000
						}
					}
				}
			}
		}
		JOINT LeftUpLeg
		{
			OFFSET 0.103459 1.857828 -10.548505
			CHANNELS 3 Zrotation Yrotation Xrotation
			JOINT LeftLeg
			{
				OFFSET 43.500046 -0.000027 0.000015
				CHANNELS 3 Zrotation Yrotation Xrotation
				JOINT LeftFoot
				{
					OFFSET 42.372261 -0.000008 0.000019
					CHANNELS 3 Zrotation Yrotation Xrotation
					JOINT LeftToe
					{
						OFFSET 17.299992 -0.000006 -0.000002
						CHANNELS 3 Zrotation Yrotation Xrotation
						End Site
						{
							OFFSET 0.000000 0.000000 0.000000
						}
					}
				}
			}
		}
		JOINT Spine
		{
			OFFSET 6.901967 -2.603729 0.000006
			CHANNELS 3 Zrotation Yrotation Xrotation
			JOINT Spine1
			{
				OFFSET 12.588098 -0.000001 -0.000005
				CHANNELS 3 Zrotation Yrotation Xrotation
				JOINT Spine2
				{
					OFFSET 12.343207 0.000001 -0.000003
					CHANNELS 3 Zrotation Yrotation Xrotation
					JOINT Neck
					{
						OFFSET 25.832897 -0.000006 -0.000001
						CHANNELS 3 Zrotation Yrotation Xrotation
						JOINT Head
						{
							OFFSET 11.766602 0.000010 0.000005
							CHANNELS 3 Zrotation Yrotation Xrotation
							End Site
							{
								OFFSET 0.000000 0.000000 0.000000
							}
						}
					}
					JOINT RightShoulder
					{
						OFFSET 19.745901 -1.480368 6.000114
						CHANNELS 3 Zrotation Yrotation Xrotation
						JOINT RightArm
						{
							OFFSET 11.284125 -0.000009 -0.000026
							CHANNELS 3 Zrotation Yrotation Xrotation
							JOINT RightForeArm
							{
								OFFSET 33.000046 0.000005 0.000037
								CHANNELS 3 Zrotation Yrotation Xrotation
								JOINT RightHand
								{
									OFFSET 25.200003 0.000016 -0.000001
									CHANNELS 3 Zrotation Yrotation Xrotation
									End Site
									{
										OFFSET 0.000000 0.000000 0.000000
									}
								}
							}
						}
					}
					JOINT LeftShoulder
					{
						OFFSET 19.746088 -1.480377 -6.000074
						CHANNELS 3 Zrotation Yrotation Xrotation
						JOINT LeftArm
						{
							OFFSET 11.284132 -0.000015 -0.000021
							CHANNELS 3 Zrotation Yrotation Xrotation
							JOINT LeftForeArm
							{
								OFFSET 33.000107 0.000015 0.000018
								CHANNELS 3 Zrotation Yrotation Xrotation
								JOINT LeftHand
								{
									OFFSET 25.199774 0.000138 0.000420
									CHANNELS 3 Zrotation Yrotation Xrotation
									End Site
									{
										OFFSET 0.000000 0.000000 0.000000
									}
								}
							}
						}
					}
				}
			}
		}
	}
}
MOTION
Frames: 13
Frame Time: 0.016667
-234.382433 0.000000 -131.946533 180.000000 31.811907 180.000000 -8.877347 85.826981 -5.686036 78.181756 -11.937318 -178.175812 178.924018 1.550596 166.833340 -58.519462 5.026836 -1.639827 65.738227 -7.389883 -21.682599 21.454558 0.003109 0.000017 135.434645 -3.354512 -162.058983 -29.312565 -1.047943 -1.139978 67.434190 -4.668867 -14.581491 21.454551 -0.003091 0.000001 7.610728 -1.846884 -2.532437 5.291666 -3.576726 -5.148696 4.974297 -3.607847 -5.127072 19.718621 1.614925 3.722650 -22.793699 7.496958 0.909638 144.524490 -80.044469 34.474252 -12.446967 51.161541 29.407710 -103.020999 -1.876652 3.060242 -11.265470 -1.357425 23.458230 -99.899365 85.053778 82.237985 58.073437 -43.314374 -70.099952 -107.207912 -1.750812 -2.945965 -4.416594 5.421779 -17.737711 
-236.783013 0.000000 -132.552904 180.000000 32.706835 180.000000 -7.876895 84.328700 -5.323331 79.185957 -12.307406 -178.376852 178.575642 0.975837 167.687419 -64.822900 4.614700 -2.100850 68.570549 -6.788800 -22.548693 21.454564 0.003109 0.000013 136.519337 -3.497521 -161.481287 -34.552914 -0.996600 0.102770 76.802396 -6.279736 -21.973584 21.454550 -0.003091 -0.000002 7.688593 -1.800795 -2.191277 5.435102 -3.497270 -4.466317 5.117407 -3.524290 -4.445158 20.361482 -0.410311 2.914002 -22.637117 8.654465 -0.518434 145.657337 -79.866585 33.340872 -12.161240 51.163943 29.462481 -102.006320 -1.891947 3.016889 -10.400480 -0.258634 23.514274 -97.630867 84.944498 84.518597 58.329367 -44.791907 -71.169428 -107.717301 -1.777957 -2.975814 -4.102860 5.399968 -16.668556 
-239.226772 0.000000 -133.440959 180.000000 33.591260 180.000000 -7.119369 82.969177 -4.937619 80.058564 -11.874418 -178.668845 177.247411 -0.440708 168.654788 -71.776046 4.405809 -2.453809 70.510268 -5.758326 -21.511435 21.454560 0.003109 0.000015 136.976137 -4.448808 -161.587809 -40.067883 -1.290030 1.643844 83.675636 -6.671520 -25.426245 21.454551 -0.003092 -0.000002 7.797227 -1.551916 -1.833412 5.632835 -3.013193 -3.741103 5.314995 -3.035854 -3.722862 20.564545 -2.478384 2.134695 -22.313791 9.725014 -1.849687 149.312126 -79.454034 29.669458 -11.689278 51.451906 28.946501 -99.899814 -2.023886 2.931432 -9.967398 0.113961 23.968691 -102.571241 84.706450 79.581117 56.162896 -47.239247 -70.216016 -106.958009 -1.665437 -2.940968 -4.247144 5.594578 -16.648239 
-241.708376 0.000000 -134.594904 180.000000 34.465728 180.000000 -6.591993 81.752135 -4.594322 80.793200 -10.994035 -178.987183 175.036732 -2.268778 169.877063 -78.974590 4.324675 -2.753051 72.091881 -4.584206 -19.557864 21.454552 0.003109 0.000018 137.201049 -5.776333 -162.114553 -45.454169 -1.589326 3.200001 88.687089 -6.654803 -26.206155 21.454552 -0.003093 -0.000001 7.932587 -1.191908 -1.492049 5.884223 -2.306713 -3.043110 5.566338 -2.325179 -3.029136 20.393455 -4.447904 1.424925 -21.849437 10.645329 -3.027028 154.287246 -78.802779 24.666688 -10.904308 51.993522 27.932007 -96.948070 -2.254534 2.815266 -9.884007 -0.260869 24.534199 -112.014149 84.401318 70.121598 51.611522 -50.370204 -67.214602 -105.050827 -1.343015 -2.873893 -4.737195 5.834749 -17.945997 
-244.222489 0.000000 -135.998945 180.000000 35.330818 180.000000 -6.286342 80.681297 -4.359839 81.379045 -10.023846 -179.281664 172.042165 -4.065401 171.485614 -86.001342 4.293264 -3.036751 73.810192 -3.492528 -17.671419 21.454548 0.003109 0.000019 137.585363 -7.053609 -162.800318 -50.275912 -1.636193 4.424097 92.585563 -6.430521 -25.690966 21.454553 -0.003093 0.000000 8.089125 -0.812211 -1.200634 6.182598 -1.559327 -2.442980 5.864696 -1.574187 -2.433523 19.907426 -6.173962 0.819399 -21.266661 11.348837 -3.995249 159.487879 -77.935390 19.432438 -9.679752 52.763363 26.492602 -93.394851 -2.566966 2.678146 -10.072828 -1.400882 24.937272 -123.913201 84.055767 58.176141 44.530268 -53.774958 -61.966404 -102.114203 -0.740505 -2.792086 -5.461502 5.926454 -20.831070 
-246.763778 0.000000 -137.637288 180.000000 36.187136 180.000000 -6.186974 79.781527 -4.281051 81.808941 -9.278254 -179.533288 168.352848 -5.399844 173.503759 -92.462179 4.253809 -3.368313 75.946458 -2.566111 -16.459591 21.454550 0.003109 0.000015 138.456714 -7.913375 -163.407342 -54.140122 -1.335038 5.004515 95.971482 -5.938567 -25.043768 21.454552 -0.003091 -0.000000 8.256843 -0.496191 -0.976842 6.509122 -0.936801 -1.979991 6.191188 -0.948881 -1.974297 19.186583 -7.528367 0.325278 -20.600040 11.804021 -4.738327 164.141022 -76.949034 14.743633 -7.904523 53.723224 24.805251 -89.577282 -2.962389 2.535609 -10.425396 -3.218828 24.956337 -136.880265 83.721034 45.127308 34.928406 -56.936856 -54.388021 -98.402230 0.170112 -2.696582 -6.305655 5.705397 -25.346657 
-249.326908 0.000000 -139.494140 180.000000 37.035316 180.000000 -6.235099 79.162247 -4.325620 82.101320 -8.895044 -179.809970 164.000287 -5.956600 175.636498 -98.043007 4.219620 -3.979213 78.123648 -1.429875 -15.053300 21.454557 0.003109 0.000012 139.947788 -8.245691 -163.753580 -56.878683 -0.971315 4.937513 98.911254 -5.193470 -24.574264 21.454551 -0.003089 -0.000001 8.413102 -0.295930 -0.773912 6.817158 -0.545844 -1.563850 6.499167 -0.555417 -1.560523 18.411011 -8.461056 -0.137197 -19.939397 12.130898 -5.388373 167.890611 -76.080250 10.955700 -5.534876 54.748390 23.449652 -86.222285 -3.509714 2.424420 -10.740939 -5.195485 24.539087 -148.932106 83.509810 32.971708 24.002161 -59.384115 -45.386294 -94.726643 1.243267 -2.602205 -7.212620 5.193846 -30.644889 
-251.906543 0.000000 -141.553706 180.000000 37.876013 180.000000 -6.370454 78.915900 -4.447462 82.272302 -8.909073 179.819792 159.079801 -5.603774 177.503454 -102.445426 4.194484 -5.103328 79.916670 0.227971 -12.590928 21.454561 0.003110 0.000014 142.089811 -8.087696 -163.726310 -58.428851 -0.833269 4.358440 101.335450 -4.262933 -24.350076 21.454550 -0.003091 -0.000001 8.534117 -0.238834 -0.532079 7.057558 -0.444810 -1.077693 6.739496 -0.451441 -1.074988 17.757821 -8.957900 -0.668912 -19.370198 12.482882 -6.103497 170.797300 -75.566007 8.005517 -2.516430 55.642501 23.019011 -84.053827 -4.182662 2.375117 -10.850659 -6.764504 23.690469 -159.236520 83.641181 22.560491 13.688761 -61.087787 -36.564513 -91.956819 2.262218 -2.551147 -8.131693 4.526316 -35.636679 
-254.497351 0.000000 -143.800193 180.000000 38.709906 180.000000 -6.578847 78.982452 -4.612998 82.311754 -9.122046 179.364119 153.886729 -4.713500 178.879444 -105.406081 4.194626 -6.794600 81.139484 2.232266 -9.766975 21.454563 0.003110 0.000016 144.696027 -7.765705 -163.488555 -58.932497 -0.973137 3.524705 103.152501 -3.310708 -24.294986 21.454551 -0.003094 0.000000 8.602828 -0.284238 -0.202900 7.193970 -0.555299 -0.423048 6.875847 -0.557970 -0.419690 17.275198 -9.072795 -1.341570 -18.889170 12.991925 -7.000914 173.360732 -75.466558 5.388085 1.165968 56.094675 23.648605 -83.384690 -4.482930 2.367367 -10.813228 -7.608875 22.542580 -167.760536 84.142537 13.948754 5.439529 -62.311848 -29.031151 -90.634034 2.872632 -2.534213 -8.939829 4.036652 -39.101258 
-257.093995 0.000000 -146.217808 180.000000 39.537692 180.000000 -6.845967 79.276093 -4.792096 82.220040 -9.327364 178.847644 148.720691 -3.743422 179.677185 -106.730647 4.259049 -8.970627 81.723059 4.340145 -7.514204 21.454560 0.003110 0.000015 147.584640 -7.597027 -163.304608 -58.547191 -1.337039 2.675333 104.298457 -2.503019 -24.307500 21.454552 -0.003096 0.000001 8.609553 -0.383206 0.245930 7.204869 -0.780892 0.467586 6.886736 -0.778185 0.472290 16.966762 -8.885198 -2.194567 -18.461827 13.757987 -8.154489 176.051334 -75.751566 2.628813 5.344575 55.806504 25.273121 -84.313480 -4.009795 2.378701 -10.754980 -7.591845 21.231479 -174.023958 85.006149 7.634419 0.232526 -63.397532 -23.544941 -91.083330 2.771775 -2.541146 -9.555963 4.095013 -40.001046 
-259.691142 0.000000 -148.790755 180.000000 40.360086 180.000000 -7.114117 79.760399 -4.957971 82.054090 -9.516920 178.277815 143.860312 -2.886201 179.950418 -106.470593 4.362509 -11.179988 82.079905 6.256527 -6.060005 21.454558 0.003109 0.000012 150.803759 -7.612300 -163.482613 -57.298196 -1.719899 1.903155 104.839994 -1.881071 -24.279104 21.454553 -0.003096 0.000001 8.567102 -0.522474 0.792156 7.114300 -1.092465 1.550823 6.796257 -1.083218 1.557389 16.792285 -8.509564 -3.181920 -18.001892 14.770988 -9.505538 179.108816 -76.262780 -0.508601 9.484149 54.682185 27.818784 -86.486101 -3.242734 2.417444 -10.767062 -7.045699 19.735326 -178.486298 86.167006 3.155056 -2.026261 -64.492318 -20.315620 -93.076585 2.023661 -2.583333 -9.953647 4.877871 -38.170112 
-262.283457 0.000000 -151.503243 180.000000 41.177822 180.000000 -7.320073 80.426319 -5.085560 81.882420 -9.726680 177.684997 139.581170 -2.226574 179.827085 -104.709710 4.461907 -12.912017 82.591782 7.673752 -5.341233 21.454557 0.003108 0.000011 154.424028 -7.720187 -164.248729 -55.212183 -1.909215 1.241641 104.723414 -1.474287 -24.126601 21.454552 -0.003094 -0.000000 8.494164 -0.695486 1.390743 6.958476 -1.473035 2.737456 6.640653 -1.456615 2.746293 16.712317 -8.059154 -4.229719 -17.421019 15.982941 -10.949561 -177.412938 -76.819134 -4.072102 13.042636 52.765444 31.060675 -89.424048 -2.727762 2.509191 -10.891952 -6.360527 18.050672 178.328024 87.475423 -0.023340 -1.740102 -65.505136 -19.364484 -96.194880 0.817104 -2.645544 -10.059204 6.368314 -33.899966 
-264.865606 0.000000 -154.339476 180.000000 41.991646 180.000000 -7.424404 81.324921 -5.143523 81.764964 -9.968267 177.209827 136.135546 -1.718001 179.563843 -101.434496 4.489773 -13.807133 83.056151 8.437549 -4.928016 21.454560 0.003109 0.000012 158.364971 -7.731796 -165.462835 -52.434012 -1.797037 0.619431 103.277800 -1.383524 -23.899600 21.454550 -0.003092 -0.000001 8.410793 -0.886682 1.960051 6.777825 -1.886214 3.865433 6.460321 -1.862980 3.876730 16.727046 -7.607031 -5.239599 -16.680691 17.294380 -12.338279 -173.783384 -77.287533 -7.783592 15.970773 50.425909 34.281654 -92.592980 -2.409060 2.631224 -11.062522 -5.678001 16.425247 173.296988 88.649495 -5.038349 0.285132 -66.141725 -20.279264 -99.811384 -0.516727 -2.705561 -9.890454 8.058285 -28.505934 
